<svg width="19" height="20" viewBox="0 0 19 20" fill="none" xmlns="http://www.w3.org/2000/svg">
<g clip-path="url(#clip0_19_207)">
<path d="M0.544739 7.79297C0.544739 12.0898 3.80602 15.5859 7.8143 15.5859C9.39939 15.5859 10.8478 15.0391 12.0412 14.1211L16.5232 18.9355C16.7327 19.1602 17.006 19.2676 17.2975 19.2676C17.9169 19.2676 18.3451 18.7695 18.3451 18.1152C18.3451 17.8027 18.2358 17.5195 18.0446 17.3145L13.5899 12.5098C14.5281 11.2012 15.0838 9.57031 15.0838 7.79297C15.0838 3.49609 11.8225 0 7.8143 0C3.80602 0 0.544739 3.49609 0.544739 7.79297ZM2.1025 7.79297C2.1025 4.41406 4.66233 1.66992 7.8143 1.66992C10.9663 1.66992 13.5261 4.41406 13.5261 7.79297C13.5261 11.1719 10.9663 13.916 7.8143 13.916C4.66233 13.916 2.1025 11.1719 2.1025 7.79297Z" fill="#91C788"/>
<ellipse cx="8.00745" cy="7.5" rx="6.52985" ry="6.5" fill="#91C788"/>
</g>
<defs>
<clipPath id="clip0_19_207">
<rect width="18.1375" height="19.2676" fill="white" transform="translate(0.544739)"/>
</clipPath>
</defs>
</svg>
